<svg width="32" height="32" viewBox="0 0 32 32" fill="none" xmlns="http://www.w3.org/2000/svg">
<path d="M2.07927 26.5505V5.41242C2.07927 4.53825 2.05738 3.88416 2.01358 3.45016C1.96979 3.01619 1.88389 2.69691 1.75589 2.4923C1.62788 2.28772 1.43586 2.16681 1.17985 2.12962V0.762574C1.78115 0.892767 2.3016 0.957866 2.7412 0.957866C3.19259 0.957866 3.72062 0.892767 4.32528 0.762574V2.12962C4.08948 2.19783 3.91516 2.31871 3.80231 2.4923C3.69114 2.66589 3.61366 2.96349 3.56988 3.38508C3.52777 3.80667 3.50671 4.45763 3.50671 5.338V22.2448C3.50671 24.4705 3.45197 26.3304 3.34249 27.8246C3.23302 29.3249 2.977 30.4255 2.57445 31.1261C2.2578 31.7089 1.88557 32 1.45776 32C1.05016 32 0.712462 31.7089 0.444656 31.1261C0.309911 30.8469 0.202116 30.4687 0.12127 29.9915C0.0404234 29.514 0 29.0398 0 28.5685C0 28.0913 0.0437918 27.6728 0.131376 27.3131C0.220644 26.9597 0.341913 26.7551 0.495184 26.6993C0.501922 26.6993 0.51287 26.6931 0.528029 26.6808C0.543187 26.6683 0.553293 26.662 0.558345 26.662C0.721724 26.662 0.837943 26.8326 0.906996 27.1735C0.977734 27.5145 1.04764 28.0292 1.11669 28.7173C1.18743 29.4054 1.25649 29.8519 1.32386 30.0565C1.38281 30.2364 1.45187 30.3262 1.53103 30.3262C1.66072 30.3262 1.77441 30.1711 1.8721 29.8612C2.01021 29.3899 2.07927 28.491 2.07927 27.1643V26.5505ZM6.81637 14.5168H8.47119L7.68546 6.81666L6.81637 14.5168ZM7.03364 23.0445C6.56203 22.9949 6.20328 22.9702 5.95737 22.9702C5.7283 22.9702 5.37292 22.9949 4.89121 23.0445V21.7147C5.30554 21.5287 5.60199 20.6638 5.78052 19.1201L7.94313 0.381287H8.38781L10.4065 19.0829C10.4401 19.2131 10.4848 19.5231 10.5403 20.0129C10.5959 20.4964 10.6759 20.8808 10.7804 21.166C10.8865 21.445 11.065 21.6279 11.316 21.7147V23.0445C10.558 22.9949 9.98878 22.9702 9.60811 22.9702C9.29145 22.9702 8.82991 22.9949 8.22357 23.0445V21.7147C8.45604 21.6775 8.64046 21.6 8.77691 21.4822C8.91329 21.3644 8.98403 21.0606 8.98913 20.5708V20.3383C8.98913 19.9602 8.96887 19.5231 8.92852 19.0271C8.88808 18.5249 8.84344 18.0476 8.79458 17.5949C8.74572 17.1362 8.69265 16.6433 8.63544 16.1163H6.62941C6.55867 16.7239 6.49887 17.2385 6.45003 17.6601C6.40287 18.0816 6.36413 18.4815 6.33382 18.8597C6.30349 19.2317 6.28833 19.5727 6.28833 19.8827C6.28833 21.0358 6.53677 21.6465 7.03364 21.7147V23.0445ZM11.8011 22.9702H12.2558C12.2777 21.7302 12.2886 20.5616 12.2886 19.4642C12.2886 18.3792 12.2777 17.1982 12.2558 15.921H12.6702C12.7881 17.657 12.9725 19.0829 13.2234 20.1989C13.4744 21.3086 13.807 21.8635 14.2214 21.8635C14.3258 21.8635 14.4024 21.8511 14.4513 21.8263C14.7225 21.7209 14.9397 21.3303 15.1032 20.6546C15.2682 19.9788 15.3507 19.2131 15.3507 18.3575C15.3507 17.254 15.2227 16.3271 14.9667 15.5769C14.7831 15.0686 14.5103 14.5261 14.1481 13.9495C13.7877 13.3729 13.5106 12.8893 13.317 12.4988C13.1232 12.1082 12.9354 11.5223 12.7536 10.7411C12.4841 9.59415 12.3493 8.19921 12.3493 6.55627C12.3493 5.13653 12.4495 3.90274 12.6499 2.85499C12.9986 1.15626 13.5267 0.306889 14.234 0.306889C14.7427 0.306889 15.2084 0.87727 15.6311 2.01804L15.7448 0.613778H16.1693C16.1693 2.65351 16.1794 4.72114 16.1996 6.81666H15.7954C15.6505 4.85753 15.4088 3.47498 15.0703 2.66899C14.8563 2.18542 14.5979 1.94362 14.2946 1.94362C14.1852 1.94362 14.1027 1.95603 14.0471 1.98082C13.8551 2.12962 13.6984 2.47062 13.5771 3.00379C13.4559 3.53696 13.3952 4.16005 13.3952 4.87301C13.3952 6.07578 13.6125 7.05535 14.0471 7.81171C14.2762 8.1837 14.4942 8.53398 14.7014 8.86257C14.9086 9.19117 15.109 9.54765 15.3027 9.93204C15.4981 10.3164 15.6775 10.7473 15.8408 11.2247C16.0059 11.7021 16.1457 12.2538 16.2602 12.88C16.4539 13.903 16.5508 15.1212 16.5508 16.5348C16.5508 17.6756 16.4784 18.7791 16.3335 19.8455C16.1516 21.0606 15.8847 21.9689 15.5326 22.5703C15.1806 23.1655 14.8025 23.463 14.3983 23.463H14.3578C14.0328 23.463 13.7523 23.3019 13.5165 22.9795C13.2807 22.6571 13.0365 22.1208 12.7839 21.3706L12.6802 22.9702H11.8011ZM24.3297 11.885C24.3297 13.5341 24.2404 15.0871 24.0619 16.5441C23.8834 17.9949 23.6358 19.2658 23.3191 20.357C23.0025 21.4481 22.6387 22.2975 22.2277 22.9051C21.8167 23.5064 21.3898 23.8071 20.9468 23.8071C20.4988 23.8071 20.0667 23.525 19.6507 22.9609C19.2364 22.3905 18.8667 21.5845 18.5416 20.5429C18.2165 19.4952 17.9614 18.2583 17.7761 16.8324C17.5925 15.4064 17.5007 13.872 17.5007 12.2291C17.5007 10.0343 17.6506 7.99771 17.9504 6.11917C18.2502 4.23444 18.657 2.74341 19.1707 1.64605C19.6844 0.54868 20.2453 0 20.8534 0C21.2963 0 21.7266 0.291391 22.1443 0.874168C22.5637 1.45075 22.9377 2.27221 23.2661 3.33858C23.5946 4.40495 23.8539 5.6728 24.0443 7.14215C24.2345 8.6115 24.3297 10.1924 24.3297 11.885ZM19.58 4.11045C19.2633 5.6728 19.105 8.11242 19.105 11.4293C19.105 11.5037 19.1067 11.6091 19.1101 11.7455C19.1134 11.8819 19.1151 11.978 19.1151 12.0338C19.1151 13.7511 19.1665 15.3445 19.2692 16.8138C19.372 18.2831 19.5589 19.4983 19.8301 20.4593C20.103 21.4202 20.4718 21.9007 20.9367 21.9007C21.6205 21.9007 22.0812 20.9614 22.3187 19.0829C22.5562 17.2044 22.6783 14.8175 22.685 11.9222C22.685 9.47326 22.5781 7.31263 22.3641 5.4403C22.1519 3.56177 21.7696 2.43342 21.2172 2.05523C21.1043 1.98082 20.9797 1.94362 20.8432 1.94362C20.5889 1.94362 20.3514 2.12652 20.1307 2.4923C19.9101 2.85188 19.7265 3.39129 19.58 4.11045ZM25.262 23.0818V21.7147C25.4961 21.5783 25.6712 21.3644 25.7875 21.073C25.9054 20.7816 25.9837 20.3787 26.0224 19.8641C26.0612 19.3495 26.0805 18.6334 26.0805 17.7159V3.81285C25.9357 3.13708 25.8102 2.69691 25.7041 2.4923C25.5997 2.28152 25.4355 2.14823 25.2115 2.09242V0.79977C25.6056 0.905166 25.8886 0.957866 26.0603 0.957866C26.2793 0.957866 26.6305 0.905166 27.1139 0.79977L30.6964 15.8838V5.97968C30.6913 4.64672 30.6349 3.68266 30.5271 3.08748C30.421 2.4923 30.1978 2.16063 29.8576 2.09242V0.79977C29.9368 0.805971 30.0462 0.818369 30.186 0.836969C30.3275 0.855568 30.4681 0.874168 30.6079 0.892767C30.7478 0.905166 30.8564 0.911367 30.9339 0.911367C31.008 0.911367 31.1149 0.905166 31.2547 0.892767C31.3945 0.874168 31.5335 0.855568 31.6716 0.836969C31.8097 0.818369 31.9192 0.805971 32 0.79977V2.09242C31.6682 2.14202 31.4467 2.49851 31.3356 3.16189C31.2261 3.82526 31.1713 4.82962 31.1713 6.17498V23.463H30.6635L26.5758 5.90529V17.7159C26.5842 18.9744 26.6456 19.9447 26.7602 20.6266C26.8764 21.3024 27.0911 21.6651 27.4044 21.7147V23.0445C26.8654 22.9949 26.452 22.9702 26.1639 22.9702C25.8641 22.9702 25.5635 23.0074 25.262 23.0818Z" fill="#373737"/>
</svg>
